<?xml version="1.0" encoding="utf-8"?>
<!-- Generator: Adobe Illustrator 24.0.1, SVG Export Plug-In . SVG Version: 6.00 Build 0)  -->
<svg version="1.1" xmlns="http://www.w3.org/2000/svg" xmlns:xlink="http://www.w3.org/1999/xlink" x="0px" y="0px"
	 viewBox="0 0 908.4 656.1" style="enable-background:new 0 0 908.4 656.1;" xml:space="preserve">
<style type="text/css">
	.st0{fill:#231F20;}
	.st1{fill:#FFFFFF;}
	.st2{enable-background:new    ;}
	.st3{fill:#919396;}
</style>
<g id="Ground">
</g>
<g id="Figures_copy">
</g>
<g id="Braille_outlines">
</g>
<g id="tactile_text_outlines">
	<g>
		<path class="st0" d="M408.2,643.1h-360c-19.8,0-36-16.7-36-37.1V50.1c0-20.4,16.2-37.1,36-37.1h360c19.8,0,36,16.7,36,37.1V606
			C444.2,626.4,428,643.1,408.2,643.1z"/>
		<path class="st0" d="M860.2,643.1h-360c-19.8,0-36-16.7-36-37.1V50.1c0-20.4,16.2-37.1,36-37.1h360c19.8,0,36,16.7,36,37.1V606
			C896.2,626.4,880,643.1,860.2,643.1z"/>
		<g>
			<path class="st1" d="M759.8,195.4H602.2c-8.6,0-15.5-7-15.5-15.5L581,75.7c0-8.6,7-15.5,15.5-15.5h169c8.6,0,15.5,7,15.5,15.5
				l-5.7,104.2C775.3,188.4,768.4,195.4,759.8,195.4z"/>
			<path class="st1" d="M740.3,388.7c-0.4,8.3-6.9,15.1-14.9,15.1h-88.7c-8,0-14.5-6.7-14.9-15.1c0-0.5,0-1,0.1-1.6l6.6-56.8
				c15.1,9.8,33.2,15.4,52.5,15.4c19.6,0,37.9-5.8,53.1-15.8l6.1,57.3C740.3,387.7,740.3,388.2,740.3,388.7z"/>
			<path class="st1" d="M778.1,235.4c0,0.1,0,0.2,0,0.3v-1.4C778.2,234.6,778.2,235,778.1,235.4z M583.8,235.7c0-0.1,0-0.2,0-0.3
				c0-0.4,0-0.7,0-1.1V235.7z"/>
			<path class="st1" d="M681,207.7c-53.3,0-96.6,12.3-97.2,27.7c0.4,33.8,18.1,63.6,44.6,80.7c15.1,9.8,33.2,15.4,52.5,15.4
				c19.6,0,37.9-5.8,53.1-15.8c26.2-17.2,43.7-46.7,44-80.3C777.6,220.1,734.3,207.7,681,207.7z M681.1,249.7
				c-38.6,0-69.8-6.3-69.8-14s31.3-14,69.8-14c38.5-0.1,69.8,6.3,69.8,14S719.6,249.7,681.1,249.7z"/>
		</g>
		<g>
			<path class="st1" d="M227,194.9H74.2c-8.4,0-15.1-6.8-15.1-15.1L53.6,78.8c0-8.4,6.8-15.1,15.1-15.1h163.9
				c8.4,0,15.1,6.8,15.1,15.1l-5.5,101.1C242.1,188.1,235.4,194.9,227,194.9z"/>
			<path class="st1" d="M208.1,382.4c-0.3,8.1-6.7,14.6-14.5,14.6h-86c-7.7,0-14.1-6.5-14.5-14.6c0-0.5,0-1,0.1-1.6l6.4-55.1
				c14.7,9.5,32.2,15,51,15c19,0,36.7-5.6,51.5-15.3L208,381C208.1,381.4,208.1,382,208.1,382.4z"/>
			<path class="st1" d="M244.8,233.7c0,0.1,0,0.2,0,0.3v-1.4C244.8,233,244.8,233.3,244.8,233.7z M56.3,234c0-0.1,0-0.2,0-0.3
				c0-0.4,0-0.7,0-1.1V234z"/>
			<path class="st1" d="M150.6,206.9c-51.7,0-93.7,12-94.3,26.8c0.4,32.8,17.5,61.6,43.3,78.2c14.7,9.5,32.2,15,51,15
				c19,0,36.7-5.6,51.5-15.3c25.4-16.6,42.3-45.3,42.7-77.8C244.3,218.8,202.3,206.9,150.6,206.9z M150.7,247.6
				c-37.4,0-67.7-6.1-67.7-13.6s30.3-13.6,67.7-13.6c37.3-0.1,67.7,6.1,67.7,13.6S188,247.6,150.7,247.6z"/>
		</g>
		<g id="_x31_:1_1_">
			<g>
				<path class="st1" d="M403.6,283.8c-2.5-2.6-6-3.9-9.5-3.7l-43,2.4l23.6-26.9c3.4-3.8,4.3-8.9,3-13.5c-0.7-3.1-2.6-6-5.5-7.8
					c-0.1-0.1-56.5-32.9-56.5-32.9c-4.6-2.7-10.4-2.1-14.4,1.5l-27.6,24.6c-5.1,4.5-5.5,12.3-1,17.4c4.5,5.1,12.3,5.5,17.4,1
					l20.9-18.7l17.3,10L297.9,272c-12.6,2.1-24,7.9-32.9,16.3l15.9,15.9c7.2-6.6,16.8-10.5,27.2-10.5c22.3,0,40.5,18.2,40.5,40.5
					c0,10.5-4,20.1-10.5,27.2l15.9,15.9c10.6-11.2,17.1-26.5,17.1-43.1c0-9.9-2.3-19.4-6.4-27.8l16.6-1l-4.1,49.6
					c-0.5,6.7,4.5,12.7,11.2,13.3c0.3,0,0.7,0,1,0c6.3,0,11.8-4.8,12.3-11.3l5.2-63.7C407.4,289.8,406.1,286.3,403.6,283.8z"/>
				<path class="st1" d="M380.8,231c11.4,0,20.7-9.3,20.7-20.7s-9.3-20.7-20.7-20.7c-11.4,0-20.7,9.3-20.7,20.7
					C360.2,221.7,369.5,231,380.8,231z"/>
				<path class="st1" d="M308.2,374.6c-22.3,0-40.5-18.2-40.5-40.5c0-8.4,2.6-16.3,7-22.7l-16.1-16.1c-8.4,10.7-13.4,24.2-13.4,38.8
					c0,34.8,28.2,63,63,63c14.6,0,28.1-5,38.8-13.4l-16.1-16.1C324.4,372.1,316.6,374.6,308.2,374.6z"/>
			</g>
		</g>
		<g class="st2">
			<path class="st3" d="M56.6,610c-0.5,0-1-0.2-1.5-0.6c-0.4-0.4-0.6-0.9-0.6-1.5s0.2-1,0.6-1.5c0.4-0.4,0.9-0.6,1.5-0.6
				c0.5,0,1,0.2,1.5,0.6c0.4,0.4,0.6,0.9,0.6,1.5s-0.2,1-0.6,1.5C57.6,609.8,57.1,610,56.6,610z M64.7,601.9c-0.5,0-1-0.2-1.5-0.6
				c-0.4-0.4-0.6-0.9-0.6-1.5s0.2-1,0.6-1.5c0.4-0.4,0.9-0.6,1.5-0.6c0.5,0,1,0.2,1.5,0.6c0.4,0.4,0.6,0.9,0.6,1.5s-0.2,1-0.6,1.5
				C65.7,601.7,65.2,601.9,64.7,601.9z"/>
			<path class="st3" d="M78.3,593.8c-0.5,0-1-0.2-1.5-0.6c-0.4-0.4-0.6-0.9-0.6-1.5s0.2-1,0.6-1.5c0.4-0.4,0.9-0.6,1.5-0.6
				c0.5,0,1,0.2,1.5,0.6c0.4,0.4,0.6,0.9,0.6,1.5s-0.2,1-0.6,1.5C79.3,593.6,78.8,593.8,78.3,593.8z M86.3,593.8
				c-0.5,0-1-0.2-1.5-0.6c-0.4-0.4-0.6-0.9-0.6-1.5s0.2-1,0.6-1.5c0.4-0.4,0.9-0.6,1.5-0.6c0.5,0,1,0.2,1.5,0.6
				c0.4,0.4,0.6,0.9,0.6,1.5s-0.2,1-0.6,1.5C87.4,593.6,86.9,593.8,86.3,593.8z"/>
			<path class="st3" d="M99.9,593.8c-0.5,0-1-0.2-1.5-0.6c-0.4-0.4-0.6-0.9-0.6-1.5s0.2-1,0.6-1.5c0.4-0.4,0.9-0.6,1.5-0.6
				c0.5,0,1,0.2,1.5,0.6c0.4,0.4,0.6,0.9,0.6,1.5s-0.2,1-0.6,1.5C101,593.6,100.5,593.8,99.9,593.8z M99.9,601.9
				c-0.5,0-1-0.2-1.5-0.6c-0.4-0.4-0.6-0.9-0.6-1.5s0.2-1,0.6-1.5c0.4-0.4,0.9-0.6,1.5-0.6c0.5,0,1,0.2,1.5,0.6
				c0.4,0.4,0.6,0.9,0.6,1.5s-0.2,1-0.6,1.5C101,601.7,100.5,601.9,99.9,601.9z M99.9,610c-0.5,0-1-0.2-1.5-0.6
				c-0.4-0.4-0.6-0.9-0.6-1.5s0.2-1,0.6-1.5c0.4-0.4,0.9-0.6,1.5-0.6c0.5,0,1,0.2,1.5,0.6c0.4,0.4,0.6,0.9,0.6,1.5s-0.2,1-0.6,1.5
				C101,609.8,100.5,610,99.9,610z"/>
			<path class="st3" d="M121.6,593.8c-0.5,0-1-0.2-1.5-0.6c-0.4-0.4-0.6-0.9-0.6-1.5s0.2-1,0.6-1.5c0.4-0.4,0.9-0.6,1.5-0.6
				c0.5,0,1,0.2,1.5,0.6c0.4,0.4,0.6,0.9,0.6,1.5s-0.2,1-0.6,1.5C122.7,593.6,122.2,593.8,121.6,593.8z M121.6,610
				c-0.5,0-1-0.2-1.5-0.6c-0.4-0.4-0.6-0.9-0.6-1.5s0.2-1,0.6-1.5c0.4-0.4,0.9-0.6,1.5-0.6c0.5,0,1,0.2,1.5,0.6
				c0.4,0.4,0.6,0.9,0.6,1.5s-0.2,1-0.6,1.5C122.7,609.8,122.2,610,121.6,610z M129.7,610c-0.5,0-1-0.2-1.5-0.6
				c-0.4-0.4-0.6-0.9-0.6-1.5s0.2-1,0.6-1.5c0.4-0.4,0.9-0.6,1.5-0.6c0.5,0,1,0.2,1.5,0.6c0.4,0.4,0.6,0.9,0.6,1.5s-0.2,1-0.6,1.5
				C130.7,609.8,130.2,610,129.7,610z"/>
			<path class="st3" d="M143.3,601.9c-0.5,0-1-0.2-1.5-0.6c-0.4-0.4-0.6-0.9-0.6-1.5s0.2-1,0.6-1.5c0.4-0.4,0.9-0.6,1.5-0.6
				c0.5,0,1,0.2,1.5,0.6c0.4,0.4,0.6,0.9,0.6,1.5s-0.2,1-0.6,1.5C144.3,601.7,143.8,601.9,143.3,601.9z M143.3,610
				c-0.5,0-1-0.2-1.5-0.6c-0.4-0.4-0.6-0.9-0.6-1.5s0.2-1,0.6-1.5c0.4-0.4,0.9-0.6,1.5-0.6c0.5,0,1,0.2,1.5,0.6
				c0.4,0.4,0.6,0.9,0.6,1.5s-0.2,1-0.6,1.5C144.3,609.8,143.8,610,143.3,610z M151.4,593.8c-0.5,0-1-0.2-1.5-0.6
				c-0.4-0.4-0.6-0.9-0.6-1.5s0.2-1,0.6-1.5c0.4-0.4,0.9-0.6,1.5-0.6c0.5,0,1,0.2,1.5,0.6c0.4,0.4,0.6,0.9,0.6,1.5s-0.2,1-0.6,1.5
				C152.4,593.6,151.9,593.8,151.4,593.8z"/>
			<path class="st3" d="M165,601.9c-0.5,0-1-0.2-1.5-0.6c-0.4-0.4-0.6-0.9-0.6-1.5s0.2-1,0.6-1.5c0.4-0.4,0.9-0.6,1.5-0.6
				c0.5,0,1,0.2,1.5,0.6c0.4,0.4,0.6,0.9,0.6,1.5s-0.2,1-0.6,1.5C166,601.7,165.5,601.9,165,601.9z M173.1,593.8
				c-0.5,0-1-0.2-1.5-0.6c-0.4-0.4-0.6-0.9-0.6-1.5s0.2-1,0.6-1.5c0.4-0.4,0.9-0.6,1.5-0.6c0.5,0,1,0.2,1.5,0.6
				c0.4,0.4,0.6,0.9,0.6,1.5s-0.2,1-0.6,1.5C174.1,593.6,173.6,593.8,173.1,593.8z"/>
			<path class="st3" d="M186.7,593.8c-0.5,0-1-0.2-1.5-0.6c-0.4-0.4-0.6-0.9-0.6-1.5s0.2-1,0.6-1.5c0.4-0.4,0.9-0.6,1.5-0.6
				c0.5,0,1,0.2,1.5,0.6c0.4,0.4,0.6,0.9,0.6,1.5s-0.2,1-0.6,1.5C187.7,593.6,187.2,593.8,186.7,593.8z M186.7,601.9
				c-0.5,0-1-0.2-1.5-0.6c-0.4-0.4-0.6-0.9-0.6-1.5s0.2-1,0.6-1.5c0.4-0.4,0.9-0.6,1.5-0.6c0.5,0,1,0.2,1.5,0.6
				c0.4,0.4,0.6,0.9,0.6,1.5s-0.2,1-0.6,1.5C187.7,601.7,187.2,601.9,186.7,601.9z M186.7,610c-0.5,0-1-0.2-1.5-0.6
				c-0.4-0.4-0.6-0.9-0.6-1.5s0.2-1,0.6-1.5c0.4-0.4,0.9-0.6,1.5-0.6c0.5,0,1,0.2,1.5,0.6c0.4,0.4,0.6,0.9,0.6,1.5s-0.2,1-0.6,1.5
				C187.7,609.8,187.2,610,186.7,610z M194.7,610c-0.5,0-1-0.2-1.5-0.6c-0.4-0.4-0.6-0.9-0.6-1.5s0.2-1,0.6-1.5
				c0.4-0.4,0.9-0.6,1.5-0.6c0.5,0,1,0.2,1.5,0.6c0.4,0.4,0.6,0.9,0.6,1.5s-0.2,1-0.6,1.5C195.8,609.8,195.3,610,194.7,610z"/>
			<path class="st3" d="M208.3,593.8c-0.5,0-1-0.2-1.5-0.6c-0.4-0.4-0.6-0.9-0.6-1.5s0.2-1,0.6-1.5c0.4-0.4,0.9-0.6,1.5-0.6
				c0.5,0,1,0.2,1.5,0.6c0.4,0.4,0.6,0.9,0.6,1.5s-0.2,1-0.6,1.5C209.4,593.6,208.9,593.8,208.3,593.8z M216.4,601.9
				c-0.5,0-1-0.2-1.5-0.6c-0.4-0.4-0.6-0.9-0.6-1.5s0.2-1,0.6-1.5c0.4-0.4,0.9-0.6,1.5-0.6c0.5,0,1,0.2,1.5,0.6
				c0.4,0.4,0.6,0.9,0.6,1.5s-0.2,1-0.6,1.5C217.5,601.7,217,601.9,216.4,601.9z"/>
			<path class="st3" d="M251.7,593.8c-0.5,0-1-0.2-1.5-0.6c-0.4-0.4-0.6-0.9-0.6-1.5s0.2-1,0.6-1.5c0.4-0.4,0.9-0.6,1.5-0.6
				c0.5,0,1,0.2,1.5,0.6c0.4,0.4,0.6,0.9,0.6,1.5s-0.2,1-0.6,1.5C252.7,593.6,252.2,593.8,251.7,593.8z M251.7,601.9
				c-0.5,0-1-0.2-1.5-0.6c-0.4-0.4-0.6-0.9-0.6-1.5s0.2-1,0.6-1.5c0.4-0.4,0.9-0.6,1.5-0.6c0.5,0,1,0.2,1.5,0.6
				c0.4,0.4,0.6,0.9,0.6,1.5s-0.2,1-0.6,1.5C252.7,601.7,252.2,601.9,251.7,601.9z M251.7,610c-0.5,0-1-0.2-1.5-0.6
				c-0.4-0.4-0.6-0.9-0.6-1.5s0.2-1,0.6-1.5c0.4-0.4,0.9-0.6,1.5-0.6c0.5,0,1,0.2,1.5,0.6c0.4,0.4,0.6,0.9,0.6,1.5s-0.2,1-0.6,1.5
				C252.7,609.8,252.2,610,251.7,610z M259.8,601.9c-0.5,0-1-0.2-1.5-0.6c-0.4-0.4-0.6-0.9-0.6-1.5s0.2-1,0.6-1.5
				c0.4-0.4,0.9-0.6,1.5-0.6c0.5,0,1,0.2,1.5,0.6c0.4,0.4,0.6,0.9,0.6,1.5s-0.2,1-0.6,1.5C260.8,601.7,260.3,601.9,259.8,601.9z"/>
			<path class="st3" d="M273.4,593.8c-0.5,0-1-0.2-1.5-0.6c-0.4-0.4-0.6-0.9-0.6-1.5s0.2-1,0.6-1.5c0.4-0.4,0.9-0.6,1.5-0.6
				c0.5,0,1,0.2,1.5,0.6c0.4,0.4,0.6,0.9,0.6,1.5s-0.2,1-0.6,1.5C274.4,593.6,273.9,593.8,273.4,593.8z M281.5,601.9
				c-0.5,0-1-0.2-1.5-0.6c-0.4-0.4-0.6-0.9-0.6-1.5s0.2-1,0.6-1.5c0.4-0.4,0.9-0.6,1.5-0.6c0.5,0,1,0.2,1.5,0.6
				c0.4,0.4,0.6,0.9,0.6,1.5s-0.2,1-0.6,1.5C282.5,601.7,282,601.9,281.5,601.9z"/>
			<path class="st3" d="M295.1,610c-0.5,0-1-0.2-1.5-0.6c-0.4-0.4-0.6-0.9-0.6-1.5s0.2-1,0.6-1.5c0.4-0.4,0.9-0.6,1.5-0.6
				c0.5,0,1,0.2,1.5,0.6c0.4,0.4,0.6,0.9,0.6,1.5s-0.2,1-0.6,1.5C296.1,609.8,295.6,610,295.1,610z M303.1,593.8
				c-0.5,0-1-0.2-1.5-0.6c-0.4-0.4-0.6-0.9-0.6-1.5s0.2-1,0.6-1.5c0.4-0.4,0.9-0.6,1.5-0.6c0.5,0,1,0.2,1.5,0.6
				c0.4,0.4,0.6,0.9,0.6,1.5s-0.2,1-0.6,1.5C304.2,593.6,303.7,593.8,303.1,593.8z"/>
			<path class="st3" d="M316.7,593.8c-0.5,0-1-0.2-1.5-0.6c-0.4-0.4-0.6-0.9-0.6-1.5s0.2-1,0.6-1.5c0.4-0.4,0.9-0.6,1.5-0.6
				c0.5,0,1,0.2,1.5,0.6c0.4,0.4,0.6,0.9,0.6,1.5s-0.2,1-0.6,1.5C317.8,593.6,317.3,593.8,316.7,593.8z M316.7,601.9
				c-0.5,0-1-0.2-1.5-0.6c-0.4-0.4-0.6-0.9-0.6-1.5s0.2-1,0.6-1.5c0.4-0.4,0.9-0.6,1.5-0.6c0.5,0,1,0.2,1.5,0.6
				c0.4,0.4,0.6,0.9,0.6,1.5s-0.2,1-0.6,1.5C317.8,601.7,317.3,601.9,316.7,601.9z M316.7,610c-0.5,0-1-0.2-1.5-0.6
				c-0.4-0.4-0.6-0.9-0.6-1.5s0.2-1,0.6-1.5c0.4-0.4,0.9-0.6,1.5-0.6c0.5,0,1,0.2,1.5,0.6c0.4,0.4,0.6,0.9,0.6,1.5s-0.2,1-0.6,1.5
				C317.8,609.8,317.3,610,316.7,610z M324.8,601.9c-0.5,0-1-0.2-1.5-0.6c-0.4-0.4-0.6-0.9-0.6-1.5s0.2-1,0.6-1.5
				c0.4-0.4,0.9-0.6,1.5-0.6c0.5,0,1,0.2,1.5,0.6c0.4,0.4,0.6,0.9,0.6,1.5s-0.2,1-0.6,1.5C325.9,601.7,325.4,601.9,324.8,601.9z"/>
			<path class="st3" d="M338.4,593.8c-0.5,0-1-0.2-1.5-0.6c-0.4-0.4-0.6-0.9-0.6-1.5s0.2-1,0.6-1.5c0.4-0.4,0.9-0.6,1.5-0.6
				c0.5,0,1,0.2,1.5,0.6c0.4,0.4,0.6,0.9,0.6,1.5s-0.2,1-0.6,1.5C339.4,593.6,339,593.8,338.4,593.8z M338.4,610
				c-0.5,0-1-0.2-1.5-0.6c-0.4-0.4-0.6-0.9-0.6-1.5s0.2-1,0.6-1.5c0.4-0.4,0.9-0.6,1.5-0.6c0.5,0,1,0.2,1.5,0.6
				c0.4,0.4,0.6,0.9,0.6,1.5s-0.2,1-0.6,1.5C339.4,609.8,339,610,338.4,610z M346.5,601.9c-0.5,0-1-0.2-1.5-0.6
				c-0.4-0.4-0.6-0.9-0.6-1.5s0.2-1,0.6-1.5c0.4-0.4,0.9-0.6,1.5-0.6c0.5,0,1,0.2,1.5,0.6c0.4,0.4,0.6,0.9,0.6,1.5s-0.2,1-0.6,1.5
				C347.5,601.7,347,601.9,346.5,601.9z"/>
			<path class="st3" d="M360.1,593.8c-0.5,0-1-0.2-1.5-0.6c-0.4-0.4-0.6-0.9-0.6-1.5s0.2-1,0.6-1.5c0.4-0.4,0.9-0.6,1.5-0.6
				c0.5,0,1,0.2,1.5,0.6c0.4,0.4,0.6,0.9,0.6,1.5s-0.2,1-0.6,1.5C361.1,593.6,360.6,593.8,360.1,593.8z M360.1,610
				c-0.5,0-1-0.2-1.5-0.6c-0.4-0.4-0.6-0.9-0.6-1.5s0.2-1,0.6-1.5c0.4-0.4,0.9-0.6,1.5-0.6c0.5,0,1,0.2,1.5,0.6
				c0.4,0.4,0.6,0.9,0.6,1.5s-0.2,1-0.6,1.5C361.1,609.8,360.6,610,360.1,610z M368.2,601.9c-0.5,0-1-0.2-1.5-0.6
				c-0.4-0.4-0.6-0.9-0.6-1.5s0.2-1,0.6-1.5c0.4-0.4,0.9-0.6,1.5-0.6c0.5,0,1,0.2,1.5,0.6c0.4,0.4,0.6,0.9,0.6,1.5s-0.2,1-0.6,1.5
				C369.2,601.7,368.7,601.9,368.2,601.9z"/>
			<path class="st3" d="M381.8,593.8c-0.5,0-1-0.2-1.5-0.6c-0.4-0.4-0.6-0.9-0.6-1.5s0.2-1,0.6-1.5c0.4-0.4,0.9-0.6,1.5-0.6
				c0.5,0,1,0.2,1.5,0.6c0.4,0.4,0.6,0.9,0.6,1.5s-0.2,1-0.6,1.5C382.8,593.6,382.3,593.8,381.8,593.8z M381.8,610
				c-0.5,0-1-0.2-1.5-0.6c-0.4-0.4-0.6-0.9-0.6-1.5s0.2-1,0.6-1.5c0.4-0.4,0.9-0.6,1.5-0.6c0.5,0,1,0.2,1.5,0.6
				c0.4,0.4,0.6,0.9,0.6,1.5s-0.2,1-0.6,1.5C382.8,609.8,382.3,610,381.8,610z M389.9,593.8c-0.5,0-1-0.2-1.5-0.6
				c-0.4-0.4-0.6-0.9-0.6-1.5s0.2-1,0.6-1.5c0.4-0.4,0.9-0.6,1.5-0.6c0.5,0,1,0.2,1.5,0.6c0.4,0.4,0.6,0.9,0.6,1.5s-0.2,1-0.6,1.5
				C390.9,593.6,390.4,593.8,389.9,593.8z"/>
		</g>
		<g class="st2">
			<path class="st3" d="M510.3,593.8c-0.5,0-1-0.2-1.5-0.6c-0.4-0.4-0.6-0.9-0.6-1.5s0.2-1,0.6-1.5c0.4-0.4,0.9-0.6,1.5-0.6
				c0.5,0,1,0.2,1.5,0.6c0.4,0.4,0.6,0.9,0.6,1.5s-0.2,1-0.6,1.5C511.3,593.6,510.9,593.8,510.3,593.8z"/>
			<path class="st3" d="M532,593.8c-0.5,0-1-0.2-1.5-0.6c-0.4-0.4-0.6-0.9-0.6-1.5s0.2-1,0.6-1.5c0.4-0.4,0.9-0.6,1.5-0.6
				c0.5,0,1,0.2,1.5,0.6c0.4,0.4,0.6,0.9,0.6,1.5s-0.2,1-0.6,1.5C533,593.6,532.5,593.8,532,593.8z M532,601.9c-0.5,0-1-0.2-1.5-0.6
				c-0.4-0.4-0.6-0.9-0.6-1.5s0.2-1,0.6-1.5c0.4-0.4,0.9-0.6,1.5-0.6c0.5,0,1,0.2,1.5,0.6c0.4,0.4,0.6,0.9,0.6,1.5s-0.2,1-0.6,1.5
				C533,601.7,532.5,601.9,532,601.9z M532,610c-0.5,0-1-0.2-1.5-0.6c-0.4-0.4-0.6-0.9-0.6-1.5s0.2-1,0.6-1.5
				c0.4-0.4,0.9-0.6,1.5-0.6c0.5,0,1,0.2,1.5,0.6c0.4,0.4,0.6,0.9,0.6,1.5s-0.2,1-0.6,1.5C533,609.8,532.5,610,532,610z"/>
			<path class="st3" d="M553.7,593.8c-0.5,0-1-0.2-1.5-0.6c-0.4-0.4-0.6-0.9-0.6-1.5s0.2-1,0.6-1.5c0.4-0.4,0.9-0.6,1.5-0.6
				c0.5,0,1,0.2,1.5,0.6c0.4,0.4,0.6,0.9,0.6,1.5s-0.2,1-0.6,1.5C554.7,593.6,554.2,593.8,553.7,593.8z M553.7,601.9
				c-0.5,0-1-0.2-1.5-0.6c-0.4-0.4-0.6-0.9-0.6-1.5s0.2-1,0.6-1.5c0.4-0.4,0.9-0.6,1.5-0.6c0.5,0,1,0.2,1.5,0.6
				c0.4,0.4,0.6,0.9,0.6,1.5s-0.2,1-0.6,1.5C554.7,601.7,554.2,601.9,553.7,601.9z M553.7,610c-0.5,0-1-0.2-1.5-0.6
				c-0.4-0.4-0.6-0.9-0.6-1.5s0.2-1,0.6-1.5c0.4-0.4,0.9-0.6,1.5-0.6c0.5,0,1,0.2,1.5,0.6c0.4,0.4,0.6,0.9,0.6,1.5s-0.2,1-0.6,1.5
				C554.7,609.8,554.2,610,553.7,610z"/>
			<path class="st3" d="M575.4,610c-0.5,0-1-0.2-1.5-0.6c-0.4-0.4-0.6-0.9-0.6-1.5s0.2-1,0.6-1.5c0.4-0.4,0.9-0.6,1.5-0.6
				c0.5,0,1,0.2,1.5,0.6c0.4,0.4,0.6,0.9,0.6,1.5s-0.2,1-0.6,1.5C576.4,609.8,575.9,610,575.4,610z M583.4,610c-0.5,0-1-0.2-1.5-0.6
				c-0.4-0.4-0.6-0.9-0.6-1.5s0.2-1,0.6-1.5c0.4-0.4,0.9-0.6,1.5-0.6c0.5,0,1,0.2,1.5,0.6c0.4,0.4,0.6,0.9,0.6,1.5s-0.2,1-0.6,1.5
				C584.5,609.8,584,610,583.4,610z"/>
			<path class="st3" d="M597,593.8c-0.5,0-1-0.2-1.5-0.6c-0.4-0.4-0.6-0.9-0.6-1.5s0.2-1,0.6-1.5c0.4-0.4,0.9-0.6,1.5-0.6
				c0.5,0,1,0.2,1.5,0.6c0.4,0.4,0.6,0.9,0.6,1.5s-0.2,1-0.6,1.5C598.1,593.6,597.6,593.8,597,593.8z M597,601.9
				c-0.5,0-1-0.2-1.5-0.6c-0.4-0.4-0.6-0.9-0.6-1.5s0.2-1,0.6-1.5c0.4-0.4,0.9-0.6,1.5-0.6c0.5,0,1,0.2,1.5,0.6
				c0.4,0.4,0.6,0.9,0.6,1.5s-0.2,1-0.6,1.5C598.1,601.7,597.6,601.9,597,601.9z M605.1,593.8c-0.5,0-1-0.2-1.5-0.6
				c-0.4-0.4-0.6-0.9-0.6-1.5s0.2-1,0.6-1.5c0.4-0.4,0.9-0.6,1.5-0.6c0.5,0,1,0.2,1.5,0.6c0.4,0.4,0.6,0.9,0.6,1.5s-0.2,1-0.6,1.5
				C606.2,593.6,605.7,593.8,605.1,593.8z M605.1,601.9c-0.5,0-1-0.2-1.5-0.6c-0.4-0.4-0.6-0.9-0.6-1.5s0.2-1,0.6-1.5
				c0.4-0.4,0.9-0.6,1.5-0.6c0.5,0,1,0.2,1.5,0.6c0.4,0.4,0.6,0.9,0.6,1.5s-0.2,1-0.6,1.5C606.2,601.7,605.7,601.9,605.1,601.9z"/>
			<path class="st3" d="M618.7,601.9c-0.5,0-1-0.2-1.5-0.6c-0.4-0.4-0.6-0.9-0.6-1.5s0.2-1,0.6-1.5c0.4-0.4,0.9-0.6,1.5-0.6
				c0.5,0,1,0.2,1.5,0.6c0.4,0.4,0.6,0.9,0.6,1.5s-0.2,1-0.6,1.5C619.7,601.7,619.3,601.9,618.7,601.9z M626.8,610
				c-0.5,0-1-0.2-1.5-0.6c-0.4-0.4-0.6-0.9-0.6-1.5s0.2-1,0.6-1.5c0.4-0.4,0.9-0.6,1.5-0.6c0.5,0,1,0.2,1.5,0.6
				c0.4,0.4,0.6,0.9,0.6,1.5s-0.2,1-0.6,1.5C627.8,609.8,627.3,610,626.8,610z"/>
			<path class="st3" d="M640.4,593.8c-0.5,0-1-0.2-1.5-0.6c-0.4-0.4-0.6-0.9-0.6-1.5s0.2-1,0.6-1.5c0.4-0.4,0.9-0.6,1.5-0.6
				c0.5,0,1,0.2,1.5,0.6c0.4,0.4,0.6,0.9,0.6,1.5s-0.2,1-0.6,1.5C641.4,593.6,640.9,593.8,640.4,593.8z M648.5,593.8
				c-0.5,0-1-0.2-1.5-0.6s-0.6-0.9-0.6-1.5s0.2-1,0.6-1.5s0.9-0.6,1.5-0.6s1,0.2,1.5,0.6s0.6,0.9,0.6,1.5s-0.2,1-0.6,1.5
				S649,593.8,648.5,593.8z M648.5,601.9c-0.5,0-1-0.2-1.5-0.6s-0.6-0.9-0.6-1.5s0.2-1,0.6-1.5s0.9-0.6,1.5-0.6s1,0.2,1.5,0.6
				s0.6,0.9,0.6,1.5s-0.2,1-0.6,1.5S649,601.9,648.5,601.9z"/>
			<path class="st3" d="M662.1,593.8c-0.5,0-1-0.2-1.5-0.6s-0.6-0.9-0.6-1.5s0.2-1,0.6-1.5s0.9-0.6,1.5-0.6s1,0.2,1.5,0.6
				s0.6,0.9,0.6,1.5s-0.2,1-0.6,1.5S662.6,593.8,662.1,593.8z M662.1,601.9c-0.5,0-1-0.2-1.5-0.6s-0.6-0.9-0.6-1.5s0.2-1,0.6-1.5
				s0.9-0.6,1.5-0.6s1,0.2,1.5,0.6s0.6,0.9,0.6,1.5s-0.2,1-0.6,1.5S662.6,601.9,662.1,601.9z M670.2,593.8c-0.5,0-1-0.2-1.5-0.6
				s-0.6-0.9-0.6-1.5s0.2-1,0.6-1.5s0.9-0.6,1.5-0.6s1,0.2,1.5,0.6s0.6,0.9,0.6,1.5s-0.2,1-0.6,1.5S670.7,593.8,670.2,593.8z
				 M670.2,601.9c-0.5,0-1-0.2-1.5-0.6s-0.6-0.9-0.6-1.5s0.2-1,0.6-1.5s0.9-0.6,1.5-0.6s1,0.2,1.5,0.6s0.6,0.9,0.6,1.5
				s-0.2,1-0.6,1.5S670.7,601.9,670.2,601.9z M670.2,610c-0.5,0-1-0.2-1.5-0.6s-0.6-0.9-0.6-1.5s0.2-1,0.6-1.5s0.9-0.6,1.5-0.6
				s1,0.2,1.5,0.6s0.6,0.9,0.6,1.5s-0.2,1-0.6,1.5S670.7,610,670.2,610z"/>
			<path class="st3" d="M705.4,593.8c-0.5,0-1-0.2-1.5-0.6s-0.6-0.9-0.6-1.5s0.2-1,0.6-1.5s0.9-0.6,1.5-0.6s1,0.2,1.5,0.6
				s0.6,0.9,0.6,1.5s-0.2,1-0.6,1.5S706,593.8,705.4,593.8z M705.4,601.9c-0.5,0-1-0.2-1.5-0.6s-0.6-0.9-0.6-1.5s0.2-1,0.6-1.5
				s0.9-0.6,1.5-0.6s1,0.2,1.5,0.6s0.6,0.9,0.6,1.5s-0.2,1-0.6,1.5S706,601.9,705.4,601.9z M705.4,610c-0.5,0-1-0.2-1.5-0.6
				s-0.6-0.9-0.6-1.5s0.2-1,0.6-1.5s0.9-0.6,1.5-0.6s1,0.2,1.5,0.6s0.6,0.9,0.6,1.5s-0.2,1-0.6,1.5S706,610,705.4,610z M713.5,601.9
				c-0.5,0-1-0.2-1.5-0.6s-0.6-0.9-0.6-1.5s0.2-1,0.6-1.5s0.9-0.6,1.5-0.6s1,0.2,1.5,0.6s0.6,0.9,0.6,1.5s-0.2,1-0.6,1.5
				S714.1,601.9,713.5,601.9z"/>
			<path class="st3" d="M727.1,593.8c-0.5,0-1-0.2-1.5-0.6s-0.6-0.9-0.6-1.5s0.2-1,0.6-1.5s0.9-0.6,1.5-0.6s1,0.2,1.5,0.6
				s0.6,0.9,0.6,1.5s-0.2,1-0.6,1.5S727.7,593.8,727.1,593.8z M735.2,601.9c-0.5,0-1-0.2-1.5-0.6s-0.6-0.9-0.6-1.5s0.2-1,0.6-1.5
				s0.9-0.6,1.5-0.6s1,0.2,1.5,0.6s0.6,0.9,0.6,1.5s-0.2,1-0.6,1.5S735.7,601.9,735.2,601.9z"/>
			<path class="st3" d="M748.8,610c-0.5,0-1-0.2-1.5-0.6s-0.6-0.9-0.6-1.5s0.2-1,0.6-1.5s0.9-0.6,1.5-0.6s1,0.2,1.5,0.6
				s0.6,0.9,0.6,1.5s-0.2,1-0.6,1.5S749.3,610,748.8,610z M756.9,593.8c-0.5,0-1-0.2-1.5-0.6s-0.6-0.9-0.6-1.5s0.2-1,0.6-1.5
				s0.9-0.6,1.5-0.6s1,0.2,1.5,0.6s0.6,0.9,0.6,1.5s-0.2,1-0.6,1.5S757.4,593.8,756.9,593.8z"/>
			<path class="st3" d="M770.5,593.8c-0.5,0-1-0.2-1.5-0.6s-0.6-0.9-0.6-1.5s0.2-1,0.6-1.5s0.9-0.6,1.5-0.6s1,0.2,1.5,0.6
				s0.6,0.9,0.6,1.5s-0.2,1-0.6,1.5S771,593.8,770.5,593.8z M770.5,601.9c-0.5,0-1-0.2-1.5-0.6s-0.6-0.9-0.6-1.5s0.2-1,0.6-1.5
				s0.9-0.6,1.5-0.6s1,0.2,1.5,0.6s0.6,0.9,0.6,1.5s-0.2,1-0.6,1.5S771,601.9,770.5,601.9z M770.5,610c-0.5,0-1-0.2-1.5-0.6
				s-0.6-0.9-0.6-1.5s0.2-1,0.6-1.5s0.9-0.6,1.5-0.6s1,0.2,1.5,0.6s0.6,0.9,0.6,1.5s-0.2,1-0.6,1.5S771,610,770.5,610z M778.6,601.9
				c-0.5,0-1-0.2-1.5-0.6s-0.6-0.9-0.6-1.5s0.2-1,0.6-1.5s0.9-0.6,1.5-0.6s1,0.2,1.5,0.6s0.6,0.9,0.6,1.5s-0.2,1-0.6,1.5
				S779.1,601.9,778.6,601.9z"/>
			<path class="st3" d="M792.1,593.8c-0.5,0-1-0.2-1.5-0.6s-0.6-0.9-0.6-1.5s0.2-1,0.6-1.5s0.9-0.6,1.5-0.6s1,0.2,1.5,0.6
				s0.6,0.9,0.6,1.5s-0.2,1-0.6,1.5S792.7,593.8,792.1,593.8z M792.1,610c-0.5,0-1-0.2-1.5-0.6s-0.6-0.9-0.6-1.5s0.2-1,0.6-1.5
				s0.9-0.6,1.5-0.6s1,0.2,1.5,0.6s0.6,0.9,0.6,1.5s-0.2,1-0.6,1.5S792.7,610,792.1,610z M800.2,601.9c-0.5,0-1-0.2-1.5-0.6
				s-0.6-0.9-0.6-1.5s0.2-1,0.6-1.5s0.9-0.6,1.5-0.6s1,0.2,1.5,0.6s0.6,0.9,0.6,1.5s-0.2,1-0.6,1.5S800.8,601.9,800.2,601.9z"/>
			<path class="st3" d="M813.8,593.8c-0.5,0-1-0.2-1.5-0.6s-0.6-0.9-0.6-1.5s0.2-1,0.6-1.5s0.9-0.6,1.5-0.6s1,0.2,1.5,0.6
				s0.6,0.9,0.6,1.5s-0.2,1-0.6,1.5S814.4,593.8,813.8,593.8z M813.8,610c-0.5,0-1-0.2-1.5-0.6s-0.6-0.9-0.6-1.5s0.2-1,0.6-1.5
				s0.9-0.6,1.5-0.6s1,0.2,1.5,0.6s0.6,0.9,0.6,1.5s-0.2,1-0.6,1.5S814.4,610,813.8,610z M821.9,601.9c-0.5,0-1-0.2-1.5-0.6
				s-0.6-0.9-0.6-1.5s0.2-1,0.6-1.5s0.9-0.6,1.5-0.6s1,0.2,1.5,0.6s0.6,0.9,0.6,1.5s-0.2,1-0.6,1.5S822.5,601.9,821.9,601.9z"/>
			<path class="st3" d="M835.5,593.8c-0.5,0-1-0.2-1.5-0.6s-0.6-0.9-0.6-1.5s0.2-1,0.6-1.5s0.9-0.6,1.5-0.6s1,0.2,1.5,0.6
				s0.6,0.9,0.6,1.5s-0.2,1-0.6,1.5S836.1,593.8,835.5,593.8z M835.5,610c-0.5,0-1-0.2-1.5-0.6s-0.6-0.9-0.6-1.5s0.2-1,0.6-1.5
				s0.9-0.6,1.5-0.6s1,0.2,1.5,0.6s0.6,0.9,0.6,1.5s-0.2,1-0.6,1.5S836.1,610,835.5,610z M843.6,593.8c-0.5,0-1-0.2-1.5-0.6
				s-0.6-0.9-0.6-1.5s0.2-1,0.6-1.5s0.9-0.6,1.5-0.6s1,0.2,1.5,0.6s0.6,0.9,0.6,1.5s-0.2,1-0.6,1.5S844.1,593.8,843.6,593.8z"/>
		</g>
		<g class="st2">
			<path class="st1" d="M73,491.1v-44.1h6.7v44.1H73z"/>
		</g>
		<g class="st2">
			<path class="st1" d="M118.6,491.1L98.2,460v31.1h-6.7v-44.1h6.1l20.4,31v-31h6.7v44.1H118.6z"/>
		</g>
		<g class="st2">
			<path class="st1" d="M151.5,491.4c-4.6,0-8.4-1.5-11.6-4.7c-2-2-3.2-4.4-3.8-7.3c-0.3-1.8-0.5-5.3-0.5-10.4
				c0-5.1,0.2-8.6,0.5-10.4c0.6-2.9,1.8-5.3,3.8-7.3c3.2-3.2,7-4.7,11.6-4.7c4.6,0,8.8,1.7,12.3,5.2l-4.5,4.5
				c-2.5-2.5-5.1-3.7-7.9-3.7c-2.7,0-4.8,0.9-6.5,2.7c-1.3,1.4-2.1,3.6-2.4,6.5c-0.1,1.1-0.2,3.5-0.2,7.3c0,3.8,0.1,6.2,0.2,7.3
				c0.3,2.9,1.1,5.1,2.4,6.5c1.7,1.8,3.8,2.7,6.5,2.7c2.8,0,5.4-1.2,7.9-3.7l4.5,4.5C160.3,489.7,156.2,491.4,151.5,491.4z"/>
		</g>
		<g class="st2">
			<path class="st1" d="M175,491.1v-44.1h6.7V485h21.3v6H175z"/>
		</g>
		<g class="st2">
			<path class="st1" d="M240,487.2c-3,2.8-6.8,4.2-11.3,4.2c-4.5,0-8.3-1.4-11.3-4.2c-3-2.9-4.5-6.5-4.5-11v-29.3h6.7v29
				c0,5.9,3.6,9.5,9.1,9.5c5.5,0,9.2-3.7,9.2-9.5v-29h6.7v29.3C244.6,480.7,243.1,484.4,240,487.2z"/>
		</g>
		<g class="st2">
			<path class="st1" d="M280.6,488c-2.9,2.3-6.8,3.5-11.5,3.5c-6.6,0-11.8-1.9-15.6-5.8l4.5-4.4c2.8,2.8,6.6,4.2,11.3,4.2
				c5.8,0,9.1-2.5,9.1-6.8c0-2-0.6-3.5-1.7-4.6c-1-0.9-2.6-1.5-4.8-1.9l-5.2-0.7c-3.7-0.6-6.4-1.7-8.4-3.5c-2.2-2-3.2-4.8-3.2-8.4
				c0-3.9,1.3-7,4-9.4c2.7-2.4,6.3-3.6,10.8-3.6c5.5,0,10.1,1.7,13.7,5l-4.3,4.2c-2.4-2.3-5.6-3.4-9.6-3.4c-5,0-8.1,2.9-8.1,6.9
				c0,3.5,2.4,5.5,6.6,6.1l5,0.7c3.7,0.6,6.4,1.6,8.2,3.3c2.4,2.1,3.6,5.1,3.6,9.1C285,482.5,283.5,485.7,280.6,488z"/>
		</g>
		<g class="st2">
			<path class="st1" d="M295.3,491.1v-44.1h6.7v44.1H295.3z"/>
		</g>
		<g class="st2">
			<path class="st1" d="M331.7,491.1h-5.2L312,446.9h6.9l10.2,32.1l10.2-32.1h7.1L331.7,491.1z"/>
		</g>
		<g class="st2">
			<path class="st1" d="M356.8,491.1v-44.1H385v6h-21.5v12.9h18.4v6h-18.4V485H385v6H356.8z"/>
		</g>
		<g>
			<g class="st2">
				<path class="st1" d="M89.6,558.4l-9.3-18.6H72v18.6h-6.7v-44.1h17.1c4.2,0,7.4,1.2,9.9,3.6c2.5,2.4,3.8,5.5,3.8,9.3
					c0,6-3.6,10.3-8.8,11.7l10.2,19.5H89.6z M81.9,520.3H72v13.8h9.9c4.5,0,7.5-2.6,7.5-6.9C89.4,522.9,86.4,520.3,81.9,520.3z"/>
			</g>
			<g class="st2">
				<path class="st1" d="M107.3,558.4v-44.1h28.2v6H114v12.9h18.4v6H114v13.3h21.5v6H107.3z"/>
			</g>
			<g class="st2">
				<path class="st1" d="M172,555.3c-2.9,2.3-6.8,3.5-11.5,3.5c-6.6,0-11.8-1.9-15.6-5.8l4.5-4.4c2.8,2.8,6.6,4.2,11.3,4.2
					c5.8,0,9.1-2.5,9.1-6.8c0-2-0.6-3.5-1.7-4.6c-1-0.9-2.6-1.5-4.8-1.9l-5.2-0.7c-3.7-0.6-6.4-1.7-8.4-3.5c-2.2-2-3.2-4.8-3.2-8.4
					c0-3.9,1.3-7,4-9.4c2.7-2.4,6.3-3.6,10.8-3.6c5.5,0,10.1,1.7,13.7,5l-4.3,4.2c-2.4-2.3-5.6-3.4-9.6-3.4c-5,0-8.1,2.9-8.1,6.9
					c0,3.5,2.4,5.5,6.6,6.1l5,0.7c3.7,0.6,6.4,1.6,8.2,3.3c2.4,2.1,3.6,5.1,3.6,9.1C176.4,549.8,174.9,553,172,555.3z"/>
			</g>
			<g class="st2">
				<path class="st1" d="M203,520.3v38.1h-6.7v-38.1h-12.2v-6h31v6H203z"/>
			</g>
			<g class="st2">
				<path class="st1" d="M250.1,558.4l-9.3-18.6h-8.4v18.6h-6.7v-44.1h17.1c4.2,0,7.4,1.2,9.9,3.6c2.5,2.4,3.8,5.5,3.8,9.3
					c0,6-3.6,10.3-8.8,11.7l10.2,19.5H250.1z M242.4,520.3h-9.9v13.8h9.9c4.5,0,7.5-2.6,7.5-6.9
					C249.9,522.9,246.9,520.3,242.4,520.3z"/>
			</g>
			<g class="st2">
				<path class="st1" d="M297.5,546.7c-0.5,2.9-1.7,5.3-3.7,7.3c-3.2,3.2-7,4.7-11.7,4.7c-4.6,0-8.4-1.5-11.6-4.7
					c-2-2-3.2-4.4-3.8-7.3c-0.3-1.8-0.5-5.3-0.5-10.4c0-5.1,0.2-8.6,0.5-10.4c0.6-2.9,1.8-5.3,3.8-7.3c3.2-3.2,7-4.7,11.6-4.7
					c4.6,0,8.5,1.5,11.7,4.7c2,2,3.2,4.4,3.7,7.3c0.3,1.8,0.5,5.3,0.5,10.4C298,541.5,297.8,544.9,297.5,546.7z M291.1,529.1
					c-0.3-2.9-1.1-5.1-2.4-6.5c-1.7-1.8-3.9-2.7-6.6-2.7s-4.9,0.9-6.6,2.7c-1.3,1.4-2.1,3.6-2.4,6.5c-0.1,1.1-0.2,3.4-0.2,7.2
					c0,3.8,0.1,6.1,0.2,7.2c0.3,2.9,1.1,5.1,2.4,6.5c1.7,1.8,3.9,2.7,6.6,2.7s4.9-0.9,6.6-2.7c1.3-1.4,2.1-3.6,2.4-6.5
					c0.1-1.1,0.2-3.4,0.2-7.2C291.3,532.5,291.2,530.2,291.1,529.1z"/>
			</g>
			<g class="st2">
				<path class="st1" d="M339.9,546.7c-0.5,2.9-1.7,5.3-3.7,7.3c-3.2,3.2-7,4.7-11.7,4.7c-4.6,0-8.4-1.5-11.6-4.7
					c-2-2-3.2-4.4-3.8-7.3c-0.3-1.8-0.5-5.3-0.5-10.4c0-5.1,0.2-8.6,0.5-10.4c0.6-2.9,1.8-5.3,3.8-7.3c3.2-3.2,7-4.7,11.6-4.7
					c4.6,0,8.5,1.5,11.7,4.7c2,2,3.2,4.4,3.7,7.3c0.3,1.8,0.5,5.3,0.5,10.4C340.4,541.5,340.2,544.9,339.9,546.7z M333.5,529.1
					c-0.3-2.9-1.1-5.1-2.4-6.5c-1.7-1.8-3.9-2.7-6.6-2.7s-4.9,0.9-6.6,2.7c-1.3,1.4-2.1,3.6-2.4,6.5c-0.1,1.1-0.2,3.4-0.2,7.2
					c0,3.8,0.1,6.1,0.2,7.2c0.3,2.9,1.1,5.1,2.4,6.5c1.7,1.8,3.9,2.7,6.6,2.7s4.9-0.9,6.6-2.7c1.3-1.4,2.1-3.6,2.4-6.5
					c0.1-1.1,0.2-3.4,0.2-7.2C333.7,532.5,333.6,530.2,333.5,529.1z"/>
			</g>
			<g class="st2">
				<path class="st1" d="M383.7,558.4v-29.5l-10.2,21.5h-5l-10.4-21.5v29.5h-6.7v-44.1h6.7l12.9,27.5l12.6-27.5h6.7v44.1H383.7z"/>
			</g>
		</g>
		<g class="st2">
			<path class="st1" d="M523.6,491l-3-8.9h-17.4l-3,8.9H493l16.2-44.1h5.4l16.2,44.1H523.6z M512,456.9l-6.9,19.6h13.6L512,456.9z"
				/>
			<path class="st1" d="M537,491v-44.1h6.7V485H565v6H537z"/>
			<path class="st1" d="M572.6,491v-44.1h6.7V485h21.3v6H572.6z"/>
			<path class="st1" d="M606.6,476.8v-5.9h18.1v5.9H606.6z"/>
			<path class="st1" d="M660.9,486.3c-3.2,3.4-7.2,5.1-12,5.1c-4.6,0-8.4-1.5-11.6-4.7c-2-2-3.2-4.4-3.8-7.3
				c-0.3-1.8-0.5-5.3-0.5-10.4c0-5.1,0.2-8.6,0.5-10.4c0.6-2.9,1.8-5.3,3.8-7.3c3.2-3.2,7-4.7,11.6-4.7c2.9,0,5.4,0.5,7.4,1.4
				c1.9,0.9,3.8,2.4,5.9,4.4l-4.5,4.5c-1.5-1.5-2.9-2.7-4-3.2c-1.4-0.7-3-1.1-4.8-1.1c-2.7,0-4.9,0.9-6.6,2.7
				c-1.3,1.4-2.1,3.6-2.4,6.5c-0.1,1.1-0.2,3.4-0.2,7.2c0,3.8,0.1,6.2,0.2,7.3c0.3,2.9,1.1,5.1,2.4,6.5c1.7,1.8,3.8,2.7,6.6,2.7
				c2.9,0,5.3-1.1,7.1-3.1c1.4-1.7,2.2-4,2.2-7v-2.4h-9.2v-5.7h15.9v6.6C664.8,479.4,663.5,483.5,660.9,486.3z"/>
			<path class="st1" d="M674.3,491v-44.1h28.2v6H681v12.9h18.4v6H681V485h21.5v6H674.3z"/>
			<path class="st1" d="M738.8,491L718.4,460V491h-6.7v-44.1h6.1l20.4,31v-31h6.7V491H738.8z"/>
			<path class="st1" d="M787.4,478.4c-0.6,3.5-1.9,6.4-4,8.5c-2.8,2.8-6.6,4.2-11.4,4.2h-15.5v-44.1H772c4.8,0,8.6,1.4,11.4,4.2
				c2.1,2.1,3.5,4.8,4,8.2c0.3,1.7,0.4,4.9,0.4,9.4C787.9,473.3,787.7,476.6,787.4,478.4z M780.8,461c-0.3-2.2-1-3.9-2-5.1
				c-1.8-2-4.3-3-7.5-3h-8.1V485h8.1c3.2,0,5.7-1,7.5-3c1.1-1.2,1.7-3,2-5.4c0.2-1.5,0.3-4.2,0.3-8C781.2,465,781,462.4,780.8,461z"
				/>
			<path class="st1" d="M797.8,491v-44.1H826v6h-21.5v12.9h18.4v6h-18.4V485H826v6H797.8z"/>
			<path class="st1" d="M859.5,491l-9.3-18.6h-8.4V491h-6.7v-44.1h17.1c4.2,0,7.4,1.2,9.9,3.6c2.5,2.4,3.8,5.5,3.8,9.3
				c0,6-3.6,10.3-8.8,11.7l10.2,19.5H859.5z M851.8,452.9h-9.9v13.8h9.9c4.5,0,7.5-2.6,7.5-6.9C859.3,455.6,856.3,452.9,851.8,452.9
				z"/>
		</g>
		<g>
			<g class="st2">
				<path class="st1" d="M544.5,557.7l-9.3-18.6h-8.4v18.6h-6.7v-44.1h17.1c4.2,0,7.4,1.2,9.9,3.6c2.5,2.4,3.8,5.5,3.8,9.3
					c0,6-3.6,10.3-8.8,11.7l10.2,19.5H544.5z M536.8,519.6h-9.9v13.8h9.9c4.5,0,7.5-2.6,7.5-6.9
					C544.3,522.3,541.3,519.6,536.8,519.6z"/>
			</g>
			<g class="st2">
				<path class="st1" d="M562.2,557.7v-44.1h28.2v6h-21.5v12.9h18.4v6h-18.4v13.3h21.5v6H562.2z"/>
			</g>
			<g class="st2">
				<path class="st1" d="M626.8,554.6c-2.9,2.3-6.8,3.5-11.5,3.5c-6.6,0-11.8-1.9-15.6-5.8l4.5-4.4c2.8,2.8,6.6,4.2,11.3,4.2
					c5.8,0,9.1-2.5,9.1-6.8c0-2-0.6-3.5-1.7-4.6c-1-0.9-2.6-1.5-4.8-1.9l-5.2-0.7c-3.7-0.6-6.4-1.7-8.4-3.5c-2.2-2-3.2-4.8-3.2-8.4
					c0-3.9,1.3-7,4-9.4c2.7-2.4,6.3-3.6,10.8-3.6c5.5,0,10.1,1.7,13.7,5l-4.3,4.2c-2.4-2.3-5.6-3.4-9.6-3.4c-5,0-8.1,2.9-8.1,6.9
					c0,3.5,2.4,5.5,6.6,6.1l5,0.7c3.7,0.6,6.4,1.6,8.2,3.3c2.4,2.1,3.6,5.1,3.6,9.1C631.2,549.2,629.8,552.3,626.8,554.6z"/>
			</g>
			<g class="st2">
				<path class="st1" d="M657.9,519.6v38.1h-6.7v-38.1h-12.2v-6h31v6H657.9z"/>
			</g>
			<g class="st2">
				<path class="st1" d="M704.9,557.7l-9.3-18.6h-8.4v18.6h-6.7v-44.1h17.1c4.2,0,7.4,1.2,9.9,3.6c2.5,2.4,3.8,5.5,3.8,9.3
					c0,6-3.6,10.3-8.8,11.7l10.2,19.5H704.9z M697.2,519.6h-9.9v13.8h9.9c4.5,0,7.5-2.6,7.5-6.9
					C704.7,522.3,701.7,519.6,697.2,519.6z"/>
			</g>
			<g class="st2">
				<path class="st1" d="M752.4,546.1c-0.5,2.9-1.7,5.3-3.7,7.3c-3.2,3.2-7,4.7-11.7,4.7c-4.6,0-8.4-1.5-11.6-4.7
					c-2-2-3.2-4.4-3.8-7.3c-0.3-1.8-0.5-5.3-0.5-10.4c0-5.1,0.2-8.6,0.5-10.4c0.6-2.9,1.8-5.3,3.8-7.3c3.2-3.2,7-4.7,11.6-4.7
					c4.7,0,8.5,1.5,11.7,4.7c2,2,3.2,4.4,3.7,7.3c0.3,1.8,0.5,5.3,0.5,10.4C752.9,540.8,752.7,544.3,752.4,546.1z M746,528.5
					c-0.3-2.9-1.1-5.1-2.4-6.5c-1.7-1.8-3.9-2.7-6.6-2.7s-4.9,0.9-6.6,2.7c-1.3,1.4-2.1,3.6-2.4,6.5c-0.1,1.1-0.2,3.4-0.2,7.2
					c0,3.8,0.1,6.1,0.2,7.2c0.3,2.9,1.1,5.1,2.4,6.5c1.7,1.8,3.9,2.7,6.6,2.7s4.9-0.9,6.6-2.7c1.3-1.4,2.1-3.6,2.4-6.5
					c0.1-1.1,0.2-3.4,0.2-7.2C746.2,531.9,746.1,529.5,746,528.5z"/>
			</g>
			<g class="st2">
				<path class="st1" d="M794.7,546.1c-0.5,2.9-1.7,5.3-3.7,7.3c-3.2,3.2-7,4.7-11.7,4.7c-4.6,0-8.4-1.5-11.6-4.7
					c-2-2-3.2-4.4-3.8-7.3c-0.3-1.8-0.5-5.3-0.5-10.4c0-5.1,0.2-8.6,0.5-10.4c0.6-2.9,1.8-5.3,3.8-7.3c3.2-3.2,7-4.7,11.6-4.7
					c4.6,0,8.5,1.5,11.7,4.7c2,2,3.2,4.4,3.7,7.3c0.3,1.8,0.5,5.3,0.5,10.4C795.2,540.8,795,544.3,794.7,546.1z M788.3,528.5
					c-0.3-2.9-1.1-5.1-2.4-6.5c-1.7-1.8-3.9-2.7-6.6-2.7s-4.9,0.9-6.6,2.7c-1.3,1.4-2.1,3.6-2.4,6.5c-0.1,1.1-0.2,3.4-0.2,7.2
					c0,3.8,0.1,6.1,0.2,7.2c0.3,2.9,1.1,5.1,2.4,6.5c1.7,1.8,3.9,2.7,6.6,2.7s4.9-0.9,6.6-2.7c1.3-1.4,2.1-3.6,2.4-6.5
					c0.1-1.1,0.2-3.4,0.2-7.2C788.5,531.9,788.4,529.5,788.3,528.5z"/>
			</g>
			<g class="st2">
				<path class="st1" d="M838.5,557.7v-29.5l-10.2,21.5h-5L813,528.2v29.5h-6.7v-44.1h6.7l12.9,27.5l12.6-27.5h6.7v44.1H838.5z"/>
			</g>
		</g>
	</g>
</g>
</svg>
